#!OML:ASF X:\für Bonn\!DataBase\2005_08_10_Bjorn_Final\c3d\bjorn.ASF
:FULLY-SPECIFIED
:DEGREES
63
root 2.48742 14.4751 1.54007 498.532 79.6599 -582.074
lowerback 31.5504 -0.405575 1.65014
upperback 18.4691 2.62014 -1.30219
thorax 3.92933 2.65575 -2.80569
lowerneck -3.68931 -8.22257 1.58486
upperneck 1.6893 -11.1763 4.21775
head 1.29903 -5.5146 0.78517
rclavicle 2.14687e-014 -1.03368e-014
rhumerus 18.1381 -2.21716 -73.9812
rradius 28.1685
rwrist 6.77796
rhand -29.0727 16.6729
rfingers 7.12502
rthumb -2.42189 -13.2931
lclavicle 2.14687e-014 -1.03368e-014
lhumerus 17.6765 -28.1635 70.7706
lradius 45.2949
lwrist -12.7312
lhand -27.3952 -13.9754
lfingers 7.12502
lthumb -0.801772 16.0028
rfemur -54.0056 -14.0877 7.88116
rtibia 102.404
rfoot -29.0701 23.2016
rtoes -13.7101
lfemur -61.0511 6.35884 -27.0857
ltibia 92.6208
lfoot -22.8794 -6.42811
ltoes -9.32487
64
root 2.50547 14.3161 1.52393 498.187 79.5709 -582.285
lowerback 32.1899 -0.5238 1.75469
upperback 18.642 2.58215 -1.22657
thorax 3.88079 2.67082 -2.78294
lowerneck -3.82092 -8.28374 1.52191
upperneck 1.61454 -11.2604 4.29393
head 1.30777 -5.55687 0.811616
rclavicle 2.54444e-014 -3.65764e-014
rhumerus 18.4333 -2.62738 -73.7577
rradius 27.8426
rwrist 7.50966
rhand -29.184 16.4722
rfingers 7.12502
rthumb -2.52944 -13.4926
lclavicle 2.54444e-014 -3.65764e-014
lhumerus 18.3842 -28.0028 70.3122
lradius 46.0628
lwrist -12.7625
lhand -27.4684 -14.1298
lfingers 7.12502
lthumb -0.872451 15.8482
rfemur -54.7893 -14.4874 7.47037
rtibia 104.067
rfoot -29.1001 23.799
rtoes -14.3975
lfemur -61.884 6.44608 -27.2468
ltibia 94.1936
lfoot -23.202 -6.61119
ltoes -9.11497
65
root 2.52305 14.1582 1.50707 497.762 79.4488 -582.588
lowerback 32.8007 -0.655895 1.86271
upperback 18.8198 2.53104 -1.1848
thorax 3.85321 2.68306 -2.79217
lowerneck -3.99846 -8.34702 1.57033
upperneck 1.55924 -11.3532 4.31599
head 1.3203 -5.60256 0.801645
rclavicle 3.18055e-015 3.81667e-014
rhumerus 18.7705 -3.09354 -73.5955
rradius 27.4623
rwrist 8.1561
rhand -29.1285 16.2594
rfingers 7.12502
rthumb -2.47582 -13.706
lclavicle 3.18055e-015 3.81667e-014
lhumerus 19.0888 -27.8538 69.792
lradius 46.7824
lwrist -12.8342
lhand -27.6211 -14.2511
lfingers 7.12502
lthumb -1.01998 15.7262
rfemur -55.5746 -14.9581 7.00542
rtibia 105.691
rfoot -29.0202 24.5098
rtoes -14.7515
lfemur -62.7297 6.53178 -27.4592
ltibia 95.7438
lfoot -23.4923 -6.73736
ltoes -9.2152
66
root 2.54077 14.0008 1.49116 497.343 79.3448 -582.845
lowerback 33.4343 -0.789611 1.96204
upperback 19.012 2.48372 -1.12095
thorax 3.83686 2.69729 -2.7735
lowerneck -4.2453 -8.40926 1.59734
upperneck 1.57102 -11.4474 4.29635
head 1.36464 -5.64721 0.777322
rclavicle -4.77083e-015 -3.97569e-015
rhumerus 19.1152 -3.57626 -73.4448
rradius 27.0517
rwrist 8.72639
rhand -28.956 16.0584
rfingers 7.12502
rthumb -2.3092 -13.9088
lclavicle -4.77083e-015 -3.97569e-015
lhumerus 19.7942 -27.7813 69.1947
lradius 47.5044
lwrist -12.8045
lhand -27.8652 -14.2784
lfingers 7.12502
lthumb -1.25572 15.6977
rfemur -56.291 -15.4547 6.53848
rtibia 107.284
rfoot -28.8048 25.3235
rtoes -14.4502
lfemur -63.5277 6.63048 -27.6435
ltibia 97.2826
lfoot -23.7948 -6.88697
ltoes -9.25055
67
root 2.55918 13.8437 1.47458 496.93 79.244 -583.105
lowerback 34.0261 -0.930192 2.07903
upperback 19.2042 2.43297 -1.07492
thorax 3.84065 2.71257 -2.77976
lowerneck -4.4553 -8.47235 1.66439
upperneck 1.55168 -11.5428 4.28581
head 1.39085 -5.6933 0.751885
rclavicle -1.90833e-014 -1.59028e-014
rhumerus 19.4155 -4.0622 -73.3534
rradius 26.6332
rwrist 9.09412
rhand -28.7802 16.0095
rfingers 7.12502
rthumb -2.13944 -13.9595
lclavicle -1.90833e-014 -1.59028e-014
lhumerus 20.4797 -27.7113 68.5484
lradius 48.162
lwrist -12.7563
lhand -28.1194 -14.3121
lfingers 7.12502
lthumb -1.50124 15.6624
rfemur -57.0088 -15.9815 6.06581
rtibia 108.847
rfoot -28.4687 26.2409
rtoes -13.7855
lfemur -64.3384 6.74371 -27.8275
ltibia 98.8133
lfoot -24.0409 -7.08706
ltoes -9.03749
68
root 2.57768 13.6858 1.45872 496.484 79.1493 -583.387
lowerback 34.6325 -1.05917 2.15864
upperback 19.3775 2.38621 -0.998027
thorax 3.82061 2.72259 -2.73529
lowerneck -4.65132 -8.53644 1.69949
upperneck 1.57396 -11.6381 4.24615
head 1.428 -5.73906 0.722011
rclavicle 4.13472e-014 -3.49861e-014
rhumerus 19.6991 -4.44745 -73.1885
rradius 26.1147
rwrist 9.49694
rhand -28.7165 15.9985
rfingers 7.12502
rthumb -2.0779 -13.9711
lclavicle 4.13472e-014 -3.49861e-014
lhumerus 21.114 -27.6765 67.9137
lradius 48.8093
lwrist -12.5449
lhand -28.3723 -14.2596
lfingers 7.12502
lthumb -1.74548 15.713
rfemur -57.7043 -16.5172 5.58558
rtibia 110.395
rfoot -28.2577 27.0318
rtoes -13.5959
lfemur -65.1353 6.87731 -28.0086
ltibia 100.335
lfoot -24.3176 -7.21659
ltoes -9.27324
69
root 2.59741 13.5281 1.4436 496.136 79.0591 -583.561
lowerback 35.257 -1.19647 2.27133
upperback 19.5247 2.33779 -0.931193
thorax 3.77061 2.73357 -2.71896
lowerneck -4.81711 -8.6006 1.75631
upperneck 1.60733 -11.7346 4.23026
head 1.46379 -5.78486 0.696912
rclavicle -4.92986e-014 1.98785e-014
rhumerus 19.9877 -4.97951 -73.1373
rradius 25.4451
rwrist 10.0909
rhand -28.6648 16.1497
rfingers 7.12502
rthumb -2.02797 -13.8204
lclavicle -4.92986e-014 1.98785e-014
lhumerus 21.6949 -27.684 67.2329
lradius 49.4242
lwrist -12.2854
lhand -28.6699 -14.1845
lfingers 7.12502
lthumb -2.03293 15.7856
rfemur -58.3591 -17.0991 5.10808
rtibia 111.913
rfoot -27.986 27.8871
rtoes -13.2369
lfemur -65.916 7.01005 -28.172
ltibia 101.855
lfoot -24.5684 -7.30015
ltoes -9.75455
70
root 2.61618 13.3715 1.42827 495.796 78.9989 -583.742
lowerback 35.8594 -1.3282 2.3769
upperback 19.6538 2.2906 -0.852497
thorax 3.71175 2.7409 -2.68611
lowerneck -4.97933 -8.6587 1.79149
upperneck 1.6774 -11.8221 4.18464
head 1.50998 -5.82584 0.665481
rclavicle -3.18055e-015 7.15625e-015
rhumerus 20.2586 -5.41244 -73.0492
rradius 24.7796
rwrist 10.5416
rhand -28.6315 16.2529
rfingers 7.12502
rthumb -1.99584 -13.7175
lclavicle -3.18055e-015 7.15625e-015
lhumerus 22.1892 -27.6573 66.6106
lradius 50.0463
lwrist -11.9295
lhand -28.8767 -14.0726
lfingers 7.12502
lthumb -2.23264 15.8954
rfemur -59.0204 -17.6894 4.65384
rtibia 113.4
rfoot -27.7938 28.6909
rtoes -13.1685
lfemur -66.7388 7.17055 -28.3144
ltibia 103.372
lfoot -24.8066 -7.44459
ltoes -9.92806
71
root 2.63589 13.2136 1.41348 495.597 78.9335 -583.77
lowerback 36.4502 -1.47178 2.50772
upperback 19.7702 2.23658 -0.761871
thorax 3.64627 2.74505 -2.6513
lowerneck -5.0824 -8.71582 1.82126
upperneck 1.73557 -11.9054 4.14229
head 1.54267 -5.86567 0.639047
rclavicle -1.27222e-014 -2.62396e-014
rhumerus 20.5077 -5.7667 -72.8948
rradius 24.1074
rwrist 10.8714
rhand -28.5507 16.2277
rfingers 7.12502
rthumb -1.91776 -13.7434
lclavicle -1.27222e-014 -2.62396e-014
lhumerus 22.6446 -27.631 66.0125
lradius 50.6241
lwrist -11.5063
lhand -29.0176 -13.9804
lfingers 7.12502
lthumb -2.36868 15.9861
rfemur -59.6561 -18.3546 4.19562
rtibia 114.877
rfoot -27.6303 29.4947
rtoes -13.1473
lfemur -67.5445 7.31993 -28.4269
ltibia 104.877
lfoot -25.0272 -7.58276
ltoes -10.3313
72
root 2.65651 13.0569 1.39874 495.302 78.8852 -583.876
lowerback 37.0299 -1.59911 2.61373
upperback 19.8947 2.19901 -0.650908
thorax 3.59721 2.75441 -2.58508
lowerneck -5.23674 -8.7783 1.80892
upperneck 1.85303 -11.9974 4.10655
head 1.60676 -5.90773 0.616462
rclavicle -4.77083e-015 -3.18055e-014
rhumerus 20.7969 -6.20937 -72.7853
rradius 23.3934
rwrist 11.298
rhand -28.4875 16.1443
rfingers 7.12502
rthumb -1.85674 -13.8273
lclavicle -4.77083e-015 -3.18055e-014
lhumerus 22.8724 -27.4779 65.6577
lradius 51.3433
lwrist -11.3104
lhand -29.1258 -13.8263
lfingers 7.12502
lthumb -2.47317 16.1391
rfemur -60.2362 -19.0523 3.73023
rtibia 116.313
rfoot -27.4974 30.2886
rtoes -13.1995
lfemur -68.3351 7.51105 -28.5481
ltibia 106.38
lfoot -25.2484 -7.70288
ltoes -10.7688
73
root 2.67612 12.8994 1.38377 494.855 78.816 -584.128
lowerback 37.5647 -1.72311 2.67702
upperback 20.0487 2.15796 -0.543918
thorax 3.59801 2.76153 -2.49658
lowerneck -5.34285 -8.83462 1.80509
upperneck 1.87713 -12.0761 4.05834
head 1.63071 -5.94673 0.594087
rclavicle 1.11319e-014 1.98785e-014
rhumerus 21.0871 -6.59788 -72.6435
rradius 22.699
rwrist 11.6425
rhand -28.4472 16.0775
rfingers 7.12502
rthumb -1.81781 -13.8945
lclavicle 1.11319e-014 1.98785e-014
lhumerus 23.042 -27.2016 65.4432
lradius 51.9879
lwrist -11.317
lhand -29.1602 -13.7034
lfingers 7.12502
lthumb -2.50641 16.2616
rfemur -60.8048 -19.815 3.2022
rtibia 117.743
rfoot -27.4873 31.0506
rtoes -13.6784
lfemur -69.1161 7.69516 -28.7076
ltibia 107.867
lfoot -25.4683 -7.78032
ltoes -11.378
74
root 2.69692 12.7418 1.36935 494.445 78.7397 -584.344
lowerback 38.0741 -1.84441 2.73444
upperback 20.1579 2.10796 -0.440523
thorax 3.55916 2.75839 -2.40725
lowerneck -5.2653 -8.89297 1.80391
upperneck 1.86158 -12.1497 4.02359
head 1.61059 -5.98595 0.585795
rclavicle 2.70347e-014 6.59965e-014
rhumerus 21.2345 -7.11935 -72.6462
rradius 22.1496
rwrist 12.158
rhand -28.3808 15.9673
rfingers 7.12502
rthumb -1.75373 -14.0052
lclavicle 2.70347e-014 6.59965e-014
lhumerus 23.0999 -26.98 65.2366
lradius 52.5601
lwrist -11.4386
lhand -29.1803 -13.4441
lfingers 7.12502
lthumb -2.52585 16.5207
rfemur -61.3505 -20.6566 2.64731
rtibia 119.149
rfoot -27.5255 31.8291
rtoes -14.2623
lfemur -69.8889 7.87002 -28.8646
ltibia 109.343
lfoot -25.6824 -7.85897
ltoes -11.941
